<svg width="686" height="220" viewBox="0 0 686 220" fill="none" xmlns="http://www.w3.org/2000/svg">
<g clip-path="url(#clip0_1_34)" filter="url(#filter0_i_1_34)">
<path d="M25.0025 25.2863L12.9023 12.8948V0.435272H25.0025V25.2863ZM42.2691 25.2863L30.1689 12.8948V0.435272H42.2691V25.2863Z" fill="#EDC701"/>
<path d="M67.7068 0.435272L79.4535 18.0228L91.0507 0.435272H113.524L88.685 36.4944V57.4008H70.0724V36.4944L56.8302 17.3971H45.0019V0.435272H67.7068Z" fill="#EDC701"/>
<path d="M174.488 29.2309C174.488 35.4606 173.182 40.779 170.586 45.1725C167.989 49.566 164.223 52.8713 159.288 55.0748C154.366 57.2783 148.479 58.3937 141.64 58.3937C134.802 58.3937 128.942 57.2783 124.034 55.0612C119.139 52.8441 115.414 49.5524 112.899 45.1997C110.37 40.847 109.119 35.5286 109.119 29.2445C109.119 24.4837 109.84 20.2943 111.295 16.6761C112.736 13.058 114.857 10.0111 117.644 7.54915C120.431 5.08717 123.844 3.19648 127.895 1.93149C131.947 0.652893 136.528 0.0135956 141.654 0.0135956C148.465 0.0135956 154.339 1.14257 159.274 3.38691C164.223 5.63125 167.989 8.95016 170.586 13.33C173.182 17.7099 174.488 23.0147 174.488 29.2445V29.2309ZM129.336 29.3941C129.336 33.053 130.152 36.2359 131.797 38.9427C133.442 41.6496 136.678 43.0098 141.518 43.0098C145.243 43.0098 148.044 42.3025 149.893 40.8742C151.742 39.4596 152.898 37.8274 153.36 36.0047C153.822 34.182 154.135 31.9785 154.284 29.3941C154.121 25.7351 153.251 22.5522 151.647 19.8318C150.043 17.1114 146.671 15.7512 141.518 15.7512C133.401 15.7512 129.336 20.3079 129.336 29.3941Z" fill="#EDC701"/>
<path d="M194.093 0.435272V34.1276C193.93 37.9634 194.664 40.643 196.295 42.1392C197.927 43.6355 200.469 44.438 203.95 44.5468C206.737 44.4924 209.062 43.6763 210.924 42.0984C212.787 40.5206 213.671 37.8682 213.562 34.1276V0.435272H232.093V33.842C232.011 38.5755 231.236 42.3569 229.741 45.1861C228.259 48.0153 226.383 50.3685 224.099 52.2728C221.828 54.1635 218.973 55.6461 215.547 56.6935C212.121 57.7408 208.3 58.3257 204.099 58.4345C200.605 58.3529 197.043 57.8768 193.44 56.9927C189.824 56.1086 186.669 54.7212 183.978 52.8305C181.286 50.9398 179.205 48.505 177.751 45.5262C176.296 42.5473 175.562 38.6707 175.562 33.8828V0.435272H194.093Z" fill="#EDC701"/>
<path d="M235.179 57.4008V0.435272H272.241C276.809 0.856937 280.575 2.06752 283.512 4.06703C286.449 6.06653 288.61 8.74614 289.983 12.1195C291.03 17.1658 291.085 21.056 290.147 23.79C289.208 26.5241 287.55 28.8092 285.184 30.6591C282.818 32.509 279.433 33.9508 275.015 34.9981L279.27 40.439H296.305V57.4008H273.832L255.777 38.5891V57.4008H235.193H235.179ZM255.763 14.6358V25.123H270.12C270.881 25.123 271.711 24.8374 272.608 24.2797C273.505 23.722 273.968 22.2938 274.022 19.9951C273.886 17.8051 273.356 16.3769 272.418 15.6696C271.48 14.9759 270.705 14.6222 270.079 14.6222H255.763V14.6358Z" fill="#EDC701"/>
<path d="M334.401 57.4008V0.435272H383.209V17.3971H352.932V23.9397H372.482V33.8828H352.932V57.3872H334.401V57.4008Z" fill="#EDC701"/>
<path d="M450.495 29.2309C450.495 35.4606 449.19 40.779 446.593 45.1725C443.996 49.566 440.23 52.8713 435.295 55.0748C430.373 57.2783 424.486 58.3937 417.647 58.3937C410.809 58.3937 404.949 57.2783 400.041 55.0612C395.146 52.8441 391.421 49.5524 388.906 45.1997C386.377 40.847 385.126 35.5286 385.126 29.2445C385.126 24.4837 385.847 20.2943 387.302 16.6761C388.743 13.058 390.864 10.0111 393.651 7.54915C396.438 5.08717 399.851 3.19648 403.902 1.93149C407.954 0.652893 412.535 0.0135956 417.661 0.0135956C424.472 0.0135956 430.346 1.14257 435.281 3.38691C440.23 5.63125 443.996 8.95016 446.593 13.33C449.19 17.7099 450.495 23.0147 450.495 29.2445V29.2309ZM405.343 29.3941C405.343 33.053 406.159 36.2359 407.804 38.9427C409.449 41.6496 412.685 43.0098 417.525 43.0098C421.25 43.0098 424.051 42.3025 425.9 40.8742C427.749 39.4596 428.905 37.8274 429.367 36.0047C429.829 34.182 430.142 31.9785 430.291 29.3941C430.128 25.7351 429.258 22.5522 427.654 19.8318C426.05 17.1114 422.678 15.7512 417.525 15.7512C409.408 15.7512 405.343 20.3079 405.343 29.3941Z" fill="#EDC701"/>
<path d="M491.853 40.439H509.677V57.4008H484.443C478.271 57.4008 472.683 56.299 467.68 54.1091C462.69 51.9191 458.747 48.6274 455.879 44.234C452.996 39.8405 451.555 34.4677 451.555 28.1019C451.555 23.6268 452.412 19.6414 454.138 16.1321C455.865 12.6227 458.244 9.69828 461.29 7.37232C464.335 5.04637 467.843 3.3053 471.799 2.16273C475.756 1.02016 479.97 0.448868 484.43 0.448868H509.663V17.4107H491.839C487.842 17.4107 484.892 17.5331 482.961 17.7643C481.031 17.9955 479.331 18.39 477.836 18.9477C476.34 19.5054 475.008 20.4575 473.852 21.8313C472.697 23.2051 472.03 25.6127 471.84 29.0948C471.976 32.4682 472.642 34.8621 473.852 36.3175C475.062 37.773 476.531 38.7251 478.271 39.2012C480.011 39.6773 481.792 40.0037 483.627 40.1941C485.463 40.3846 488.196 40.4662 491.826 40.4662L491.853 40.439Z" fill="#EDC701"/>
<path d="M528.928 0.435272V34.1276C528.765 37.9634 529.499 40.643 531.131 42.1392C532.762 43.6355 535.305 44.438 538.785 44.5468C541.573 44.4924 543.897 43.6763 545.76 42.0984C547.623 40.5206 548.506 37.8682 548.398 34.1276V0.435272H566.929V33.842C566.847 38.5755 566.072 42.3569 564.577 45.1861C563.095 48.0153 561.218 50.3685 558.934 52.2728C556.664 54.1635 553.809 55.6461 550.383 56.6935C546.956 57.7408 543.136 58.3257 538.935 58.4345C535.441 58.3529 531.879 57.8768 528.276 56.9927C524.659 56.1086 521.505 54.7212 518.813 52.8305C516.121 50.9398 514.041 48.505 512.586 45.5262C511.132 42.5473 510.397 38.6707 510.397 33.8828V0.435272H528.928Z" fill="#EDC701"/>
<path d="M614.813 17.3971H600.931C594.174 17.1794 593.182 19.0565 597.94 23.0011C606.451 30.4687 610.639 37.7322 610.476 44.778C610.313 51.8239 606.139 56.0406 597.94 57.4008H567.663V40.439H579.654C587.091 40.6566 588.043 38.5755 582.496 34.2092C573.346 25.7895 569.457 18.0636 570.831 11.0177C572.204 3.97181 576.514 0.448868 583.76 0.448868H614.826V17.4107L614.813 17.3971Z" fill="#EDC701"/>
<path d="M7.49127 138.183V81.218H41.0863C45.6409 81.218 49.638 81.8301 53.1186 83.0271C56.5991 84.2241 59.5221 85.8699 61.915 87.9238C64.3078 89.9777 66.2928 92.7526 67.8835 96.2483C69.4742 99.744 70.2628 104.301 70.2628 109.891C69.9773 115.074 69.1071 119.481 67.666 123.112C66.2248 126.744 64.2943 129.601 61.915 131.709C59.5357 133.817 56.5991 135.436 53.1458 136.606C49.6924 137.762 45.3554 138.292 40.1482 138.183H7.49127ZM26.4981 95.337V123.969H37.3475C39.7947 123.969 41.7661 123.452 43.2617 122.405C44.7572 121.371 45.9808 120.038 46.9325 118.42C47.8842 116.801 48.4824 113.89 48.7407 109.687C48.6592 105.851 48.1289 103.009 47.15 101.186C46.1575 99.3632 44.8931 97.9214 43.3432 96.8876C41.7933 95.8538 39.7675 95.3234 37.2659 95.3234H26.4981V95.337Z" fill="#EDC701"/>
<path d="M73.349 138.183V81.218H122.158V98.1798H91.88V104.722H111.431V114.666H91.88V121.208H126.971V138.17H73.349V138.183Z" fill="#EDC701"/>
<path d="M179.178 81.218V98.1798H161.123V138.183H142.592V98.1798H124.537V81.218H179.192H179.178Z" fill="#EDC701"/>
<path d="M181.476 138.183V81.218H230.285V98.1798H200.007V104.722H219.557V114.666H200.007V121.208H235.097V138.17H181.476V138.183Z" fill="#EDC701"/>
<path d="M235.424 138.183V81.218H272.486C277.054 81.6397 280.82 82.8503 283.757 84.8498C286.693 86.8493 288.855 89.5289 290.228 92.9022C291.275 97.9486 291.329 101.839 290.391 104.573C289.453 107.307 287.795 109.592 285.429 111.442C283.063 113.292 279.678 114.734 275.259 115.781L279.515 121.222H296.55V138.183H274.076L256.021 119.372V138.183H235.437H235.424ZM256.008 95.4186V105.906H270.365C271.126 105.906 271.956 105.62 272.853 105.062C273.75 104.505 274.212 103.077 274.267 100.778C274.131 98.5879 273.601 97.1596 272.662 96.4523C271.724 95.7586 270.949 95.405 270.324 95.405H256.008V95.4186Z" fill="#EDC701"/>
<path d="M296.074 138.183V81.218H314.605L327.059 104.886L339.445 81.218H357.976V138.183H339.445V114.516L327.535 138.183H326.515L314.605 114.516V138.183H296.074Z" fill="#EDC701"/>
<path d="M361.456 81.218H379.987V138.183H361.456V81.218Z" fill="#EDC701"/>
<path d="M384.243 138.183V81.218H402.774L419.728 102.519V81.218H438.259V138.183H419.728L402.774 116.883V138.183H384.243Z" fill="#EDC701"/>
<path d="M440.95 138.183V81.218H489.759V98.1798H459.481V104.722H479.032V114.666H459.481V121.208H494.572V138.17H440.95V138.183Z" fill="#EDC701"/>
<path d="M539.696 98.1798H525.815C519.058 97.9622 518.065 99.8392 522.824 103.784C531.335 111.251 535.522 118.515 535.359 125.561C535.196 132.607 531.022 136.823 522.824 138.183H492.546V121.222H504.538C511.975 121.439 512.926 119.358 507.379 114.992C498.229 106.572 494.341 98.8463 495.714 91.8004C497.087 84.7545 501.397 81.2316 508.644 81.2316H539.71V98.1934L539.696 98.1798Z" fill="#EDC701"/>
<path d="M68.2914 162.014L43.452 198.073V218.98H24.8394V198.073L0 162.014H22.4738L34.0709 179.602L45.8176 162.014H68.2914Z" fill="#EDC701"/>
<path d="M129.255 190.81C129.255 197.04 127.949 202.358 125.353 206.752C122.756 211.145 118.99 214.45 114.055 216.654C109.133 218.857 103.246 219.973 96.4074 219.973C89.5687 219.973 83.7089 218.857 78.8009 216.64C73.9064 214.423 70.1812 211.131 67.666 206.779C65.1372 202.426 63.8864 197.108 63.8864 190.824C63.8864 186.063 64.6069 181.873 66.0617 178.255C67.5028 174.637 69.6237 171.59 72.4109 169.128C75.198 166.666 78.6105 164.776 82.6621 163.511C86.7136 162.232 91.2954 161.593 96.4209 161.593C103.232 161.593 109.106 162.722 114.041 164.966C118.99 167.21 122.756 170.529 125.353 174.909C127.949 179.289 129.255 184.594 129.255 190.824V190.81ZM84.1032 190.973C84.1032 194.632 84.919 197.815 86.564 200.522C88.2091 203.229 91.4449 204.589 96.285 204.589C100.01 204.589 102.811 203.882 104.66 202.453C106.509 201.039 107.665 199.406 108.127 197.584C108.589 195.761 108.902 193.558 109.051 190.973C108.888 187.314 108.018 184.131 106.414 181.411C104.81 178.69 101.438 177.33 96.285 177.33C88.1683 177.33 84.1032 181.887 84.1032 190.973Z" fill="#EDC701"/>
<path d="M148.86 162.014V195.707C148.697 199.542 149.431 202.222 151.062 203.718C152.694 205.215 155.236 206.017 158.717 206.126C161.504 206.071 163.829 205.255 165.691 203.678C167.554 202.1 168.438 199.447 168.329 195.707V162.014H186.86V195.421C186.778 200.155 186.003 203.936 184.508 206.765C183.026 209.594 181.15 211.948 178.866 213.852C176.595 215.743 173.74 217.225 170.314 218.273C166.888 219.32 163.067 219.905 158.866 220.014C155.372 219.932 151.81 219.456 148.207 218.572C144.591 217.688 141.436 216.3 138.744 214.41C136.053 212.519 133.972 210.084 132.518 207.105C131.063 204.126 130.329 200.25 130.329 195.462V162.014H148.86Z" fill="#EDC701"/>
<path d="M189.946 218.966V162.001H227.008C231.576 162.422 235.342 163.633 238.279 165.632C241.216 167.632 243.377 170.312 244.75 173.685C245.797 178.731 245.852 182.621 244.914 185.356C243.975 188.09 242.317 190.375 239.951 192.225C237.585 194.074 234.2 195.516 229.782 196.564L234.037 202.004H251.072V218.966H228.599L210.544 200.155V218.966H189.96H189.946ZM210.53 176.201V186.689H224.887C225.648 186.689 226.478 186.403 227.375 185.845C228.272 185.287 228.735 183.859 228.789 181.561C228.653 179.371 228.123 177.942 227.185 177.235C226.247 176.541 225.472 176.188 224.846 176.188H210.53V176.201Z" fill="#EDC701"/>
<path d="M289.168 218.966V162.001H326.23C330.798 162.422 334.564 163.633 337.501 165.632C340.437 167.632 342.599 170.312 343.972 173.685C345.019 178.731 345.073 182.621 344.135 185.356C343.197 188.09 341.538 190.375 339.173 192.225C336.807 194.074 333.422 195.516 329.003 196.564L333.259 202.004H350.294V218.966H327.82L309.765 200.155V218.966H289.181H289.168ZM309.752 176.201V186.689H324.109C324.87 186.689 325.699 186.403 326.597 185.845C327.494 185.287 327.956 183.859 328.011 181.561C327.875 179.371 327.345 177.942 326.406 177.235C325.468 176.541 324.693 176.188 324.068 176.188H309.752V176.201Z" fill="#EDC701"/>
<path d="M350.607 218.966V162.001H399.415V178.963H369.138V185.505H388.688V195.448H369.138V201.991H404.228V218.953H350.607V218.966Z" fill="#EDC701"/>
<path d="M399.035 218.966L417.77 162.001H446.035L465.083 218.966H443.561L439.972 208.71H423.059L419.469 218.966H399.048H399.035ZM431.964 174.623L423.806 197.189H439.496L431.964 174.623Z" fill="#EDC701"/>
<path d="M464.607 218.966V162.001H483.138V202.004H513.973V218.966H464.607Z" fill="#EDC701"/>
<path d="M515.877 162.014H534.408V218.98H515.877V162.014Z" fill="#EDC701"/>
<path d="M590.558 162.014V178.976H572.503V218.98H553.972V178.976H535.917V162.014H590.572H590.558Z" fill="#EDC701"/>
<path d="M653.656 162.014L628.816 198.073V218.98H610.204V198.073L585.364 162.014H607.838L619.435 179.602L631.182 162.014H653.656Z" fill="#EDC701"/>
<path d="M656.62 186.906V162.014H668.72V174.447L656.62 186.906ZM673.9 186.906V162.014H686V174.447L673.9 186.906Z" fill="#EDC701"/>
</g>
<defs>
<filter id="filter0_i_1_34" x="0" y="0" width="686" height="224" filterUnits="userSpaceOnUse" color-interpolation-filters="sRGB">
<feFlood flood-opacity="0" result="BackgroundImageFix"/>
<feBlend mode="normal" in="SourceGraphic" in2="BackgroundImageFix" result="shape"/>
<feColorMatrix in="SourceAlpha" type="matrix" values="0 0 0 0 0 0 0 0 0 0 0 0 0 0 0 0 0 0 127 0" result="hardAlpha"/>
<feOffset dy="4"/>
<feGaussianBlur stdDeviation="2"/>
<feComposite in2="hardAlpha" operator="arithmetic" k2="-1" k3="1"/>
<feColorMatrix type="matrix" values="0 0 0 0 0 0 0 0 0 0 0 0 0 0 0 0 0 0 0.25 0"/>
<feBlend mode="normal" in2="shape" result="effect1_innerShadow_1_34"/>
</filter>
<clipPath id="clip0_1_34">
<rect width="686" height="220" fill="white"/>
</clipPath>
</defs>
</svg>
